<?xml version="1.0" encoding="UTF-8" standalone="no" ?>
<!DOCTYPE svg PUBLIC "-//W3C//DTD SVG 1.1//EN" "http://www.w3.org/Graphics/SVG/1.1/DTD/svg11.dtd">
<svg xmlns="http://www.w3.org/2000/svg" xmlns:xlink="http://www.w3.org/1999/xlink" version="1.1" width="1280" height="1024" viewBox="0 0 1280 1024" xml:space="preserve">
<desc>Created with Fabric.js 5.3.0</desc>
<defs>
</defs>
<g transform="matrix(1 0 0 1 640 512)" id="background-logo"  >
<rect style="stroke: none; stroke-width: 0; stroke-dasharray: none; stroke-linecap: butt; stroke-dashoffset: 0; stroke-linejoin: miter; stroke-miterlimit: 4; fill: rgb(44,37,2); fill-rule: nonzero; opacity: 1;"  paint-order="stroke"  x="-640" y="-512" rx="0" ry="0" width="1280" height="1024" />
</g>
<g transform="matrix(1.9211538461538462 0 0 1.9211538461538462 640 395.6864080388972)" id="logo-logo"  >
<g style=""  paint-order="stroke"   >
		<g transform="matrix(0.917930923744532 0 0 0.9179309237445321 0 0)"  >
<g style=""  paint-order="stroke"   >
		<g transform="matrix(1 0 0 1 0 0)"  >
<linearGradient id="SVGID_44330" gradientUnits="userSpaceOnUse" gradientTransform="matrix(1 0 0 1 -100 -100)"  x1="0" y1="0" x2="0" y2="200">
<stop offset="0%" style="stop-color:rgb(48,35,174);stop-opacity: 1"/>
<stop offset="100%" style="stop-color:rgb(200,109,215);stop-opacity: 1"/>
</linearGradient>
<polygon style="stroke: none; stroke-width: 1; stroke-dasharray: none; stroke-linecap: butt; stroke-dashoffset: 0; stroke-linejoin: miter; stroke-miterlimit: 4; fill: url(#SVGID_44330); fill-rule: nonzero; opacity: 1;"  paint-order="stroke"  points="100,100 0,100 0,95.12 95.12,95.12 95.12,-95.12 -95.12,-95.12 -95.12,0 -100,0 -100,-100 100,-100 100,100 " />
</g>
</g>
</g>
</g>
</g>
<g transform="matrix(1.9211538461538462 0 0 1.9211538461538462 642.6680024038462 667.1128161574082)" id="text-logo"  >
<g style=""  paint-order="stroke"   >
		<g transform="matrix(1 0 0 1 0 0)" id="text-logo-path-0"  >
<linearGradient id="SVGID_44331" gradientUnits="userSpaceOnUse" gradientTransform="matrix(1 0 0 1 5.5 -39.05)"  x1="-5.513751888275152" y1="-9.302699999999959" x2="-5.513751888275152" y2="52.69730000000004">
<stop offset="0%" style="stop-color:rgb(23,234,217);stop-opacity: 1"/>
<stop offset="100%" style="stop-color:rgb(96,120,234);stop-opacity: 1"/>
</linearGradient>
<path style="stroke: rgb(255,255,255); stroke-width: 0; stroke-dasharray: none; stroke-linecap: butt; stroke-dashoffset: 0; stroke-linejoin: miter; stroke-miterlimit: 4; fill: url(#SVGID_44331); fill-rule: nonzero; opacity: 1;"  paint-order="stroke"  transform=" translate(-148.995, 19.25)" d="M 5.5 -38.5 L 5.5 0 L 19.25 0 L 19.25 -3.3 L 9.35 -3.3 L 9.35 -38.5 Z M 33.55 0.55 C 38.72 0.55 42.9 -0.88 42.9 -8.25 L 42.9 -16.5 L 46.59 -16.5 L 46.59 -19.8 L 36.3 -19.8 L 36.3 -16.5 L 39.05 -16.5 L 39.05 -9.35 C 39.05 -4.34 36.91 -3.3 33.55 -3.3 C 30.2 -3.3 28.05 -4.34 28.05 -9.35 L 28.11 -10.45 C 28.38 -15.46 30.25 -16.5 33.61 -16.5 L 34.1 -16.5 L 34.1 -19.8 C 30.75 -19.8 28.88 -20.84 28.6 -25.85 C 28.6 -30.86 30.75 -32.45 34.1 -32.45 C 37.45 -32.45 39.05 -31.41 39.05 -26.4 L 39.05 -25.3 L 42.9 -25.3 L 42.9 -27.5 C 42.9 -34.87 39.33 -36.3 34.1 -36.3 C 28.93 -36.3 24.75 -34.32 24.75 -26.95 C 24.75 -22.77 25.8 -20.13 27.61 -18.54 C 25.63 -17.32 24.37 -15.07 24.26 -11 L 24.2 -8.25 C 24.2 -0.99 28.38 0.55 33.55 0.55 Z M 67.54 -38.5 L 49.39 -38.5 L 49.39 -35.2 L 56.54 -35.2 L 56.54 0 L 60.39 0 L 60.39 -35.2 L 67.54 -35.2 Z M 93.94 0.55 C 99.11 0.55 103.29 -0.88 103.29 -8.25 L 103.29 -9.35 C 103.29 -18.21 88.44 -23.87 88.44 -29.15 C 88.44 -34.16 90.58 -35.2 93.94 -35.2 C 97.3 -35.2 99.44 -34.16 99.44 -29.15 L 99.44 -26.95 L 103.29 -26.95 L 103.29 -30.25 C 103.29 -37.62 99.16 -39.05 93.94 -39.05 C 88.77 -39.05 84.59 -37.62 84.59 -30.25 L 84.59 -29.15 C 84.59 -21.23 99.44 -15.56 99.44 -9.35 C 99.44 -4.34 97.3 -3.3 93.94 -3.3 C 90.58 -3.3 88.44 -4.34 88.44 -9.35 L 88.44 -12.21 L 84.59 -12.21 L 84.59 -8.25 C 84.59 -0.99 88.72 0.55 93.94 0.55 Z M 112.36 -30.25 L 112.36 -8.25 C 112.36 -0.88 116.55 0.55 121.72 0.55 C 126.94 0.55 131.06 -0.99 131.06 -8.25 L 131.06 -30.25 C 131.06 -37.62 126.94 -39.05 121.72 -39.05 C 116.55 -39.05 112.36 -37.62 112.36 -30.25 Z M 116.22 -9.35 L 116.22 -29.15 C 116.22 -34.16 118.36 -35.2 121.72 -35.2 C 125.07 -35.2 127.22 -34.16 127.22 -29.15 L 127.22 -9.35 C 127.22 -4.34 125.07 -3.3 121.72 -3.3 C 118.36 -3.3 116.22 -4.34 116.22 -9.35 Z M 141.24 -38.5 L 141.24 0 L 145.09 0 L 145.09 -17.6 L 154.44 -17.6 L 154.44 -20.9 L 145.09 -20.9 L 145.09 -35.2 L 157.19 -35.2 L 157.19 -38.5 Z M 179.19 -38.5 L 161.04 -38.5 L 161.04 -35.2 L 168.19 -35.2 L 168.19 0 L 172.04 0 L 172.04 -35.2 L 179.19 -35.2 Z M 183.31 -38.5 L 188.71 0 L 193.93 0 L 199.87 -32.06 L 205.75 0 L 210.98 0 L 216.37 -38.5 L 212.52 -38.5 L 207.96 -5.94 L 201.96 -38.5 L 197.72 -38.5 L 191.73 -5.94 L 187.16 -38.5 Z M 219.94 0 L 223.8 0 L 226 -10.45 L 235.84 -10.45 L 238.04 0 L 241.89 0 L 233.81 -38.5 L 228.03 -38.5 Z M 226.71 -13.75 L 230.94 -33.94 L 235.18 -13.75 Z M 249.59 0 L 253.44 0 L 253.44 -14.3 L 257.29 -14.3 L 264.17 0 L 268.29 0 L 261.25 -14.74 C 264.5 -15.56 266.64 -17.82 266.64 -23.1 L 266.64 -29.7 C 266.64 -37.07 262.51 -38.5 257.29 -38.5 L 249.59 -38.5 Z M 253.44 -17.6 L 253.44 -35.2 L 257.29 -35.2 C 260.64 -35.2 262.79 -34.16 262.79 -29.15 L 262.79 -23.65 C 262.79 -18.64 260.64 -17.6 257.29 -17.6 Z M 275.99 -38.5 L 275.99 0 L 292.49 0 L 292.49 -3.3 L 279.84 -3.3 L 279.84 -17.6 L 289.19 -17.6 L 289.19 -20.9 L 279.84 -20.9 L 279.84 -35.2 L 291.94 -35.2 L 291.94 -38.5 Z" stroke-linecap="round" />
</g>
</g>
</g>
<g transform="matrix(1.9211538461538462 0 0 1.9211538461538462 648.0688461538462 397.83385065788775)" id="tagline-3a78d944-c0db-44d4-8ad5-60158c925687-logo"  >
<g style=""  paint-order="stroke"   >
		<g transform="matrix(1 0 0 1 0 0)" id="tagline-3a78d944-c0db-44d4-8ad5-60158c925687-logo-path-0"  >
<linearGradient id="SVGID_44332" gradientUnits="userSpaceOnUse" gradientTransform="matrix(1 0 0 1 10.5 -73.5)"  x1="-10.5" y1="-18.809699999999992" x2="-10.5" y2="100.19030000000001">
<stop offset="0%" style="stop-color:rgb(246,220,90);stop-opacity: 1"/>
<stop offset="100%" style="stop-color:rgb(237,200,12);stop-opacity: 1"/>
</linearGradient>
<path style="stroke: rgb(255,255,255); stroke-width: 0; stroke-dasharray: none; stroke-linecap: butt; stroke-dashoffset: 0; stroke-linejoin: miter; stroke-miterlimit: 4; fill: url(#SVGID_44332); fill-rule: nonzero; opacity: 1;"  paint-order="stroke"  transform=" translate(-23.625, 36.75)" d="M 10.5 -73.5 L 10.5 0 L 36.75 0 L 36.75 -6.3 L 17.85 -6.3 L 17.85 -73.5 Z" stroke-linecap="round" />
</g>
</g>
</g>
<g transform="matrix(1.9211538461538462 0 0 1.9211538461538462 611.4900769230769 764.260186926639)" id="tagline-ee21041c-fd7a-4646-a088-df0a2334375e-logo"  >
<g style=""  paint-order="stroke"   >
		<g transform="matrix(1 0 0 1 0 0)" id="tagline-ee21041c-fd7a-4646-a088-df0a2334375e-logo-path-0"  >
<linearGradient id="SVGID_44333" gradientUnits="userSpaceOnUse" gradientTransform="matrix(1 0 0 1 1.4000000000000057 -24.85)"  x1="-1.3825016021727947" y1="-5.919899999999927" x2="-1.3825016021727947" y2="34.08010000000007">
<stop offset="0%" style="stop-color:rgb(23,234,217);stop-opacity: 1"/>
<stop offset="100%" style="stop-color:rgb(96,120,234);stop-opacity: 1"/>
</linearGradient>
<path style="stroke: none; stroke-width: 0; stroke-dasharray: none; stroke-linecap: butt; stroke-dashoffset: 0; stroke-linejoin: miter; stroke-miterlimit: 4; fill: url(#SVGID_44333); fill-rule: nonzero; opacity: 1;"  paint-order="stroke"  transform=" translate(-173.9, 12.25)" d="M 1.4 0 L 3.85 0 L 5.25 -6.65 L 11.52 -6.65 L 12.92 0 L 15.37 0 L 10.22 -24.5 L 6.55 -24.5 Z M 5.71 -8.75 L 8.4 -21.6 L 11.1 -8.75 Z M 42.91 -5.95 L 42.91 -24.5 L 40.46 -24.5 L 40.46 -5.25 C 40.46 -0.56 43.12 0.35 46.41 0.35 C 49.73 0.35 52.36 -0.56 52.36 -5.25 L 52.36 -24.5 L 49.91 -24.5 L 49.91 -5.95 C 49.91 -2.77 48.55 -2.1 46.41 -2.1 C 44.28 -2.1 42.91 -2.77 42.91 -5.95 Z M 88.66 -24.5 L 77.11 -24.5 L 77.11 -22.4 L 81.66 -22.4 L 81.66 0 L 84.11 0 L 84.11 -22.4 L 88.66 -22.4 Z M 113.23 -19.25 L 113.23 -5.25 C 113.23 -0.56 115.89 0.35 119.18 0.35 C 122.5 0.35 125.13 -0.63 125.13 -5.25 L 125.13 -19.25 C 125.13 -23.94 122.5 -24.85 119.18 -24.85 C 115.89 -24.85 113.23 -23.94 113.23 -19.25 Z M 115.68 -5.95 L 115.68 -18.55 C 115.68 -21.74 117.04 -22.4 119.18 -22.4 C 121.31 -22.4 122.68 -21.74 122.68 -18.55 L 122.68 -5.95 C 122.68 -2.77 121.31 -2.1 119.18 -2.1 C 117.04 -2.1 115.68 -2.77 115.68 -5.95 Z M 167.48 -24.5 L 163.98 -24.5 L 159.81 -9.52 L 155.65 -24.5 L 152.15 -24.5 L 152.15 0 L 154.6 0 L 154.6 -19.46 L 158.55 -5.25 L 161.07 -5.25 L 165.03 -19.46 L 165.03 0 L 167.48 0 Z M 192.92 0 L 195.37 0 L 196.77 -6.65 L 203.04 -6.65 L 204.44 0 L 206.89 0 L 201.74 -24.5 L 198.07 -24.5 Z M 197.23 -8.75 L 199.92 -21.6 L 202.62 -8.75 Z M 239.33 -24.5 L 227.78 -24.5 L 227.78 -22.4 L 232.33 -22.4 L 232.33 0 L 234.78 0 L 234.78 -22.4 L 239.33 -22.4 Z M 268.98 -24.5 L 263.38 -24.5 L 263.38 -22.4 L 264.95 -22.4 L 264.95 -2.1 L 263.38 -2.1 L 263.38 0 L 268.98 0 L 268.98 -2.1 L 267.4 -2.1 L 267.4 -22.4 L 268.98 -22.4 Z M 294.95 -19.25 L 294.95 -5.25 C 294.95 -0.56 297.61 0.35 300.9 0.35 C 304.22 0.35 306.85 -0.63 306.85 -5.25 L 306.85 -19.25 C 306.85 -23.94 304.22 -24.85 300.9 -24.85 C 297.61 -24.85 294.95 -23.94 294.95 -19.25 Z M 297.4 -5.95 L 297.4 -18.55 C 297.4 -21.74 298.76 -22.4 300.9 -22.4 C 303.03 -22.4 304.4 -21.74 304.4 -18.55 L 304.4 -5.95 C 304.4 -2.77 303.03 -2.1 300.9 -2.1 C 298.76 -2.1 297.4 -2.77 297.4 -5.95 Z M 333.87 -24.5 L 333.87 0 L 336.32 0 L 336.32 -18.55 L 343.95 0 L 346.4 0 L 346.4 -24.5 L 343.95 -24.5 L 343.95 -5.95 L 336.32 -24.5 Z" stroke-linecap="round" />
</g>
</g>
</g>
</svg>